<?xml version="1.0" encoding="utf-8"?>
<svg xmlns="http://www.w3.org/2000/svg">
<symbol id="envelope" viewBox="0 0 511.626 511.626"><path d="M49.106 178.729c6.472 4.567 25.981 18.131 58.528 40.685 32.548 22.554 57.482 39.92 74.803 52.099 1.903 1.335 5.946 4.237 12.131 8.71 6.186 4.476 11.326 8.093 15.416 10.852 4.093 2.758 9.041 5.852 14.849 9.277 5.806 3.422 11.279 5.996 16.418 7.7 5.14 1.718 9.898 2.569 14.275 2.569h.575c4.377 0 9.137-.852 14.277-2.569 5.137-1.704 10.615-4.281 16.416-7.7 5.804-3.429 10.752-6.52 14.845-9.277 4.093-2.759 9.229-6.376 15.417-10.852 6.184-4.477 10.232-7.375 12.135-8.71 17.508-12.179 62.051-43.11 133.615-92.79 13.894-9.703 25.502-21.411 34.827-35.116 9.332-13.699 13.993-28.07 13.993-43.105 0-12.564-4.523-23.319-13.565-32.264-9.041-8.947-19.749-13.418-32.117-13.418H45.679c-14.655 0-25.933 4.948-33.832 14.844C3.949 79.562 0 91.934 0 106.779c0 11.991 5.236 24.985 15.703 38.974 10.466 13.99 21.604 24.983 33.403 32.976z"/><path d="M483.072 209.275c-62.424 42.251-109.824 75.087-142.177 98.501-10.849 7.991-19.65 14.229-26.409 18.699-6.759 4.473-15.748 9.041-26.98 13.702-11.228 4.668-21.692 6.995-31.401 6.995h-.578c-9.707 0-20.177-2.327-31.405-6.995-11.228-4.661-20.223-9.229-26.98-13.702-6.755-4.47-15.559-10.708-26.407-18.699-25.697-18.842-72.995-51.68-141.896-98.501C17.987 202.047 8.375 193.762 0 184.437v226.685c0 12.57 4.471 23.319 13.418 32.265 8.945 8.949 19.701 13.422 32.264 13.422h420.266c12.56 0 23.315-4.473 32.261-13.422 8.949-8.949 13.418-19.694 13.418-32.265V184.437c-8.186 9.132-17.7 17.417-28.555 24.838z"/>
</symbol>
<symbol id="group" viewBox="0 0 80.13 80.13"><path d="M48.355 17.922c3.705 2.323 6.303 6.254 6.776 10.817a11.69 11.69 0 0 0 4.966 1.112c6.491 0 11.752-5.261 11.752-11.751 0-6.491-5.261-11.752-11.752-11.752-6.429.002-11.644 5.169-11.742 11.574zm-7.699 24.062c6.491 0 11.752-5.262 11.752-11.752s-5.262-11.751-11.752-11.751c-6.49 0-11.754 5.262-11.754 11.752s5.264 11.751 11.754 11.751zm4.985.801h-9.972c-8.297 0-15.047 6.751-15.047 15.048v12.195l.031.191.84.263c7.918 2.474 14.797 3.299 20.459 3.299 11.059 0 17.469-3.153 17.864-3.354l.785-.397h.084V57.833c.003-8.297-6.747-15.048-15.044-15.048zm19.443-12.132h-9.895a14.483 14.483 0 0 1-4.47 10.088c7.375 2.193 12.771 9.032 12.771 17.11v3.758c9.77-.358 15.4-3.127 15.771-3.313l.785-.398h.084V45.699c0-8.296-6.75-15.046-15.046-15.046zm-45.049-.8c2.299 0 4.438-.671 6.25-1.814a14.544 14.544 0 0 1 5.467-9.276c.012-.22.033-.438.033-.66 0-6.491-5.262-11.752-11.75-11.752-6.492 0-11.752 5.261-11.752 11.752 0 6.488 5.26 11.75 11.752 11.75zm10.554 10.888a14.492 14.492 0 0 1-4.467-10.032c-.367-.027-.73-.056-1.104-.056h-9.971C6.75 30.653 0 37.403 0 45.699v12.197l.031.188.84.265c6.352 1.983 12.021 2.897 16.945 3.185v-3.683c.002-8.078 5.396-14.915 12.773-17.11z"/>
</symbol>
<symbol id="home" viewBox="0 0 27.02 27.02"><path d="M3.674 24.876s-.024.604.566.604l6.811-.008.01-5.581s-.096-.92.797-.92h2.826c1.056 0 .991.92.991.92l-.012 5.563h6.667c.749 0 .715-.752.715-.752V14.413l-9.396-8.358-9.975 8.358v10.463z"/><path d="M0 13.635s.847 1.561 2.694 0l11.038-9.338 10.349 9.28c2.138 1.542 2.939 0 2.939 0L13.732 1.54 0 13.635zm23.83-9.36h-2.662l.011 3.228 2.651 2.249z"/>
</symbol>
<symbol id="internet" viewBox="0 0 15 15"><path d="M14.982 7A7.498 7.498 0 0 0 8 .017V0H7v.017A7.499 7.499 0 0 0 .017 7H0v1h.017A7.498 7.498 0 0 0 7 14.982V15h1v-.018A7.497 7.497 0 0 0 14.982 8H15V7h-.018zM4.695 1.635C4.212 2.277 3.811 3.082 3.519 4H2.021a6.534 6.534 0 0 1 2.674-2.365zM1.498 5h1.758a11.876 11.876 0 0 0-.246 2H1.019a6.444 6.444 0 0 1 .479-2zm-.479 3H3.01c.027.697.112 1.368.246 2H1.498a6.444 6.444 0 0 1-.479-2zm1.002 3h1.497c.292.918.693 1.723 1.177 2.365A6.527 6.527 0 0 1 2.021 11zM7 13.936C5.972 13.661 5.087 12.557 4.55 11H7v2.936zM7 10H4.269a11.176 11.176 0 0 1-.259-2H7v2zm0-3H4.01c.029-.704.118-1.377.259-2H7v2zm0-3H4.55C5.087 2.443 5.972 1.339 7 1.065V4zm5.979 0h-1.496c-.293-.918-.693-1.723-1.178-2.365A6.54 6.54 0 0 1 12.979 4zM8 1.065C9.027 1.339 9.913 2.443 10.45 4H8V1.065zM8 5h2.73c.142.623.229 1.296.26 2H8V5zm0 3h2.99a11.085 11.085 0 0 1-.26 2H8V8zm0 5.936V11h2.45c-.537 1.557-1.423 2.661-2.45 2.936zm2.305-.571c.483-.643.885-1.447 1.178-2.365h1.496a6.533 6.533 0 0 1-2.674 2.365zM13.502 10h-1.758c.134-.632.219-1.303.246-2h1.99a6.415 6.415 0 0 1-.478 2zM11.99 7a11.876 11.876 0 0 0-.246-2h1.758c.26.623.426 1.296.479 2H11.99z" fill="#030104"/>
</symbol>
<symbol id="place" viewBox="0 0 97.713 97.713"><path d="M48.855 0C29.021 0 12.883 16.138 12.883 35.974c0 5.174 1.059 10.114 3.146 14.684 8.994 19.681 26.238 40.46 31.31 46.359a2.003 2.003 0 0 0 3.034 0c5.07-5.898 22.314-26.676 31.311-46.359 2.088-4.57 3.146-9.51 3.146-14.684C84.828 16.138 68.69 0 48.855 0zm0 54.659c-10.303 0-18.686-8.383-18.686-18.686 0-10.304 8.383-18.687 18.686-18.687s18.686 8.383 18.686 18.687c.001 10.303-8.382 18.686-18.686 18.686z"/>
</symbol></svg>